<svg width="195" height="54" viewBox="0 0 195 54" fill="none" xmlns="http://www.w3.org/2000/svg">
<path d="M56.3354 22.3934C55.609 20.5438 54.345 18.9544 52.7065 17.8301C52.6094 17.7642 52.5285 17.677 52.47 17.5751C52.4116 17.4733 52.3771 17.3595 52.3692 17.2423C52.3674 17.2087 52.3674 17.175 52.3692 17.1414C52.3769 17.0417 52.3827 16.942 52.3866 16.8423C52.3866 16.7415 52.3923 16.6406 52.3923 16.5397C52.3925 15.4785 52.1836 14.4276 51.7775 13.4471C51.3715 12.4666 50.7763 11.5758 50.0259 10.8253C49.2754 10.0749 48.3846 9.4797 47.4041 9.07366C46.4236 8.66761 45.3727 8.45869 44.3115 8.45885H44.3045C44.1215 8.4617 43.9435 8.39935 43.8022 8.28295C43.6609 8.16655 43.5657 8.00369 43.5335 7.82351C43.3661 6.7998 42.9672 5.82783 42.3672 4.98167C41.7672 4.1355 40.9819 3.43747 40.0713 2.94077C39.1606 2.44407 38.1486 2.16181 37.1123 2.1155C36.076 2.06919 35.0429 2.26005 34.0915 2.67354C33.9309 2.7432 33.7513 2.75576 33.5826 2.70915C33.4138 2.66253 33.2661 2.55954 33.164 2.41732C32.6385 1.67043 31.941 1.06091 31.1305 0.640191C30.3199 0.219473 29.4201 -9.57383e-05 28.5068 1.17573e-05C27.5934 -0.00116073 26.6931 0.217945 25.8824 0.638752C25.0717 1.05956 24.3743 1.66966 23.8496 2.41732C23.7479 2.56051 23.5995 2.66381 23.4299 2.70948C23.2607 2.75608 23.0807 2.74339 22.9198 2.67354C21.9684 2.26005 20.9353 2.06919 19.899 2.1155C18.8627 2.16181 17.8507 2.44407 16.94 2.94077C16.0294 3.43747 15.2441 4.1355 14.6441 4.98167C14.0441 5.82783 13.6452 6.7998 13.4778 7.82351C13.4453 8.00378 13.3499 8.16666 13.2084 8.28304C13.067 8.39943 12.8888 8.46174 12.7056 8.45885H12.6987C10.5555 8.45885 8.50009 9.31022 6.98463 10.8257C5.46917 12.3411 4.61779 14.3965 4.61779 16.5397C4.61779 16.6406 4.61779 16.7415 4.62359 16.8423C4.62939 16.9432 4.63403 17.0417 4.64098 17.1414C4.64387 17.175 4.64387 17.2087 4.64098 17.2423C4.63328 17.3594 4.59901 17.4732 4.54075 17.575C4.48249 17.6769 4.40178 17.7641 4.30476 17.8301C2.97628 18.7383 1.88971 19.9572 1.13949 21.3809C0.389268 22.8045 -0.00190002 24.3899 -1.44442e-05 25.9991C-1.44442e-05 26.1069 -1.44441e-05 26.2147 0.00578245 26.3214C0.00578245 26.3574 0.00578245 26.3921 0.00578245 26.4281C0.00578245 26.4988 0.0115794 26.5707 0.0162169 26.6414C0.0162169 26.6831 0.0220138 26.7249 0.0254919 26.7666C0.0254919 26.8315 0.0359263 26.8953 0.0428826 26.9591C0.0428826 27.0031 0.0509983 27.046 0.0556358 27.0901C0.0625921 27.1527 0.0707077 27.2141 0.077664 27.2756L0.0950547 27.4066C0.10433 27.4704 0.114764 27.533 0.125199 27.5967C0.125199 27.6373 0.137952 27.6779 0.144908 27.7185C0.161139 27.8158 0.179689 27.9121 0.200558 28.0083C0.209833 28.0535 0.220268 28.0987 0.229543 28.144C0.238818 28.1892 0.25389 28.2529 0.266643 28.3074C0.279396 28.3619 0.292149 28.4106 0.306062 28.4616C0.319974 28.5126 0.330409 28.5555 0.343162 28.6031C0.355915 28.6506 0.372146 28.7097 0.388378 28.7619L0.426637 28.8929C0.444028 28.9474 0.460259 29.0019 0.47765 29.0552L0.519388 29.1781C0.537938 29.2338 0.556488 29.2941 0.576197 29.3439L0.614457 29.4471C0.661991 29.5735 0.710685 29.6975 0.762857 29.8216C0.769814 29.8401 0.777929 29.8587 0.786045 29.8772C0.809233 29.9329 0.833579 29.9874 0.857926 30.0419C0.875317 30.079 0.891548 30.1172 0.908939 30.1578C0.92633 30.1984 0.956474 30.2598 0.98198 30.3108C0.992414 30.3352 1.00401 30.3584 1.0156 30.3827C2.67583 34.0104 7.88377 38.2085 14.2209 41.8641C14.9776 42.3015 15.7355 42.7073 16.4945 43.0814C16.6413 43.1547 16.7608 43.2729 16.8357 43.4189C16.9106 43.5649 16.9369 43.731 16.9107 43.893C16.775 44.6616 16.2881 45.9068 15.9299 46.9781C14.9003 50.0504 18.6428 51.9298 21.2549 52.6382C21.2754 52.6435 21.2955 52.6501 21.3152 52.6579C22.9789 53.3002 25.5805 53.7141 28.5033 53.7141C31.4284 53.7141 34.0301 53.3002 35.6915 52.6579C35.7124 52.6498 35.7321 52.644 35.7518 52.6382C38.3639 51.9298 42.1063 50.0504 41.078 46.9781C40.7186 45.9068 40.2316 44.6593 40.0971 43.893C40.0707 43.7311 40.0967 43.565 40.1714 43.419C40.2461 43.273 40.3655 43.1547 40.5122 43.0814C41.2689 42.7073 42.0271 42.3015 42.7869 41.8641C49.1229 38.2085 54.3355 34.0104 55.998 30.3758L56.0316 30.3039C56.056 30.2529 56.0803 30.203 56.1047 30.1508L56.1545 30.0349C56.1789 29.9804 56.2044 29.9259 56.2276 29.8703L56.2508 29.8146C56.3018 29.6906 56.3516 29.5665 56.398 29.4401C56.4108 29.4054 56.4247 29.3717 56.4363 29.337C56.4571 29.2825 56.4757 29.2268 56.4942 29.1712C56.5128 29.1155 56.5221 29.09 56.5348 29.0483C56.5476 29.0065 56.5696 28.9404 56.5858 28.886C56.6021 28.8315 56.6125 28.799 56.6252 28.7549L56.6705 28.5961L56.7076 28.4547L56.7458 28.3005C56.7586 28.246 56.7713 28.1915 56.7829 28.137C56.7945 28.0825 56.8038 28.0466 56.8131 28.0014C56.8328 27.9051 56.8513 27.8089 56.8687 27.7115C56.8757 27.6709 56.8815 27.6304 56.8884 27.5898C56.8989 27.526 56.9081 27.4634 56.9174 27.3996L56.9255 27.2744C56.9336 27.213 56.9406 27.1515 56.9476 27.0889C56.9476 27.0449 56.9568 27.002 56.9615 26.9579C56.9673 26.8941 56.9731 26.8304 56.9777 26.7655C56.9777 26.7237 56.9846 26.682 56.987 26.6402C56.987 26.5695 56.9951 26.4976 56.9986 26.4269C56.9986 26.391 56.9986 26.3562 56.9986 26.3202C56.9986 26.2136 56.9986 26.1058 56.9986 25.9979C57.0047 24.7656 56.7797 23.5429 56.3354 22.3934Z" fill="url(#paint0_linear_286_971)"/>
<path d="M95.6033 30.6714H89.5877V16.9995H79.4705V11.6675H95.6033V30.6714ZM77.9324 30.6714H71.9168V16.9995H67.6443V11.6675H77.9324V30.6714ZM97.6541 42.2583H66.4139V35.9692H79.6756V26.1938H86.5115V35.9692H97.6541V42.2583ZM130.125 30.6714H124.109V16.9995H113.992V11.6675H130.125V30.6714ZM112.454 30.6714H106.438V16.9995H102.166V11.6675H112.454V30.6714ZM132.176 42.2583H100.935V35.9692H114.197V26.1938H121.033V35.9692H132.176V42.2583ZM145.779 23.6646V15.769H142.019V23.6646H145.779ZM152.513 28.2104H135.286V11.2573H152.513V28.2104ZM163.108 44.5142H156.272V37.5415H136.927V31.936H163.108V44.5142ZM163.142 30.8765H156.306V10.6079H163.142V18.3667H166.902V24.3823H163.142V30.8765Z" fill="#8B91E4"/>
<defs>
<linearGradient id="paint0_linear_286_971" x1="28.5057" y1="53.7094" x2="28.5057" y2="6.40266e-06" gradientUnits="userSpaceOnUse">
<stop stop-color="#726FD6"/>
<stop offset="0.51875" stop-color="#96A2EA"/>
<stop offset="1" stop-color="#A1C0E6"/>
</linearGradient>
</defs>
</svg>
